# xmcd
#
# Track frame offsets: 
#        150
#        14383
#        34490
#        50525
#        64451
#        91742
#        103243
#        131909
#        147205
#        177641
#        217057
#        238426
#        263480
#        280725
#        311240
#        332312
#
# Disc length: 4771 seconds
#
# Revision: 1
# Processed by: cddbd v1.5.2PL0 Copyright (c) Steve Scherf et al.
# Submitted via: ExactAudioCopy v1.1
#
DISCID=fd12a110
DTITLE=Quatuor Ebene - Fiction
DYEAR=2010
DGENRE=Jazz
TTITLE0=Misirlou
TTITLE1=Amado Mio
TTITLE2=Nature Boy
TTITLE3=Come Together
TTITLE4=Unrequited
TTITLE5=Intro Calling You
TTITLE6=Calling You
TTITLE7=Corcovado
TTITLE8=Nothing Personal
TTITLE9=Footprints
TTITLE10=Lilac Wine
TTITLE11=Smile
TTITLE12=Someday My Prince Will Come
TTITLE13=Somewhere Over the Rainbow
TTITLE14=7-29-04 The Day of
TTITLE15=Streets of Philadelphia
EXTD=YEAR: 2010
EXTT0=
EXTT1=
EXTT2=
EXTT3=
EXTT4=
EXTT5=
EXTT6=
EXTT7=
EXTT8=
EXTT9=
EXTT10=
EXTT11=
EXTT12=
EXTT13=
EXTT14=
EXTT15=
PLAYORDER=
